<?xml version="1.0" standalone="no"?>
<!DOCTYPE svg PUBLIC "-//W3C//DTD SVG 20010904//EN"
 "http://www.w3.org/TR/2001/REC-SVG-20010904/DTD/svg10.dtd">
<svg version="1.0" xmlns="http://www.w3.org/2000/svg"
width="100px" height="60px"  viewBox="0 0 1880.000000 405.000000"
 preserveAspectRatio="xMidYMid meet">

<g transform="translate(0.000000,405.000000) scale(0.100000,-0.100000)"
fill="#000000" stroke="none">
<path d="M1192 4019 c-110 -43 -108 -39 -657 -991 -390 -677 -509 -892 -521
-939 -19 -75 -13 -144 20 -215 34 -73 993 -1733 1025 -1774 15 -19 52 -50 81
-67 l54 -33 1106 0 1106 0 45 29 c24 15 58 44 75 62 27 29 966 1645 1034 1779
31 61 39 171 16 239 -25 78 -1010 1778 -1059 1829 -23 24 -64 56 -92 70 l-50
27 -1065 2 c-1049 2 -1066 2 -1118 -18z m1315 -899 c139 -36 281 -128 376
-245 81 -99 177 -320 177 -404 0 -12 -11 -33 -25 -46 l-24 -25 -712 0 -713 0
-23 22 c-78 73 73 409 250 556 101 83 238 144 366 161 89 13 237 4 328 -19z
m-721 -1003 c44 -51 36 -73 -80 -217 -92 -113 -210 -225 -307 -289 -209 -140
-403 -142 -529 -5 -172 186 -79 476 170 531 38 8 158 11 388 10 l334 -2 24
-28z m1754 23 c77 -15 136 -48 190 -107 64 -69 84 -130 78 -232 -7 -113 -58
-198 -152 -251 -172 -99 -379 -36 -615 186 -89 83 -236 260 -252 303 -13 33
11 88 43 101 31 12 643 12 708 0z m-1010 -20 c17 -17 20 -33 20 -105 0 -78 -2
-88 -25 -110 -24 -25 -25 -25 -219 -25 -122 0 -204 4 -219 11 -35 16 -47 49
-47 128 0 54 4 74 21 95 l20 26 215 0 c201 0 215 -1 234 -20z m316 -523 c13
-15 24 -38 24 -49 0 -30 -90 -165 -118 -178 -30 -13 -870 -14 -906 0 -33 12
-116 136 -116 173 0 37 16 66 43 77 12 5 251 8 535 7 l514 -2 24 -28z m-415
-516 c34 -42 25 -76 -38 -142 -50 -52 -61 -59 -95 -59 -72 0 -171 115 -149
174 19 48 46 57 159 54 95 -3 105 -5 123 -27z"/>
<path d="M10342 3148 c-8 -8 -12 -63 -12 -183 0 -154 2 -174 18 -188 16 -14
44 -17 189 -17 152 0 172 2 186 18 14 16 17 44 17 188 0 119 -4 174 -12 182
-8 8 -66 12 -193 12 -127 0 -185 -4 -193 -12z"/>
<path d="M12670 3140 c-8 -14 -10 -300 -8 -948 4 -1029 0 -973 71 -1078 34
-52 111 -105 182 -127 65 -20 265 -14 368 11 85 21 140 43 151 60 3 5 -5 67
-17 137 -26 148 -32 156 -102 137 -110 -29 -191 -5 -227 68 -17 33 -18 96 -18
886 0 648 -3 853 -12 862 -8 8 -66 12 -195 12 -172 0 -183 -1 -193 -20z"/>
<path d="M5825 3109 c-215 -31 -419 -150 -515 -300 -74 -115 -112 -289 -92
-427 17 -121 45 -184 115 -258 105 -113 210 -162 562 -265 292 -85 398 -138
441 -220 21 -41 18 -137 -5 -175 -57 -94 -205 -135 -404 -114 -172 19 -348 81
-513 180 -47 28 -93 50 -102 48 -19 -3 -171 -290 -172 -325 0 -16 16 -31 59
-58 394 -239 939 -293 1281 -127 55 26 95 56 150 111 120 121 164 235 163 426
-1 133 -23 213 -84 304 -99 148 -252 225 -671 337 -195 51 -278 86 -336 138
-50 46 -66 91 -59 164 8 78 45 129 122 167 54 27 72 30 172 34 180 5 368 -46
514 -141 34 -22 71 -38 82 -36 16 2 42 39 99 143 42 77 77 148 77 157 1 24
-37 51 -152 107 -244 120 -495 164 -732 130z"/>
<path d="M13650 3103 c-8 -3 -18 -11 -22 -17 -4 -6 -8 -473 -8 -1038 0 -920 2
-1028 16 -1042 14 -14 74 -16 512 -16 639 0 710 8 882 92 143 70 238 182 275
325 32 123 9 312 -51 424 -35 63 -145 169 -210 202 -64 32 -72 51 -36 80 150
122 222 268 222 452 0 271 -185 504 -426 535 -75 10 -1129 12 -1154 3z m1011
-364 c96 -29 159 -125 159 -243 0 -38 -5 -86 -12 -107 -16 -53 -69 -113 -126
-141 -45 -22 -57 -23 -330 -26 -210 -3 -287 -1 -297 8 -12 10 -15 56 -15 260
0 135 3 250 7 253 12 12 573 8 614 -4z m95 -866 c90 -48 145 -146 143 -257 -1
-110 -52 -197 -141 -240 l-54 -26 -329 2 -330 3 -3 260 c-2 239 -1 261 15 273
14 10 86 13 338 10 308 -3 322 -4 361 -25z"/>
<path d="M7545 2565 c-258 -49 -458 -200 -566 -430 -63 -134 -74 -189 -74
-370 1 -155 2 -163 33 -255 45 -131 101 -221 196 -316 132 -132 285 -203 483
-223 374 -39 691 132 837 451 46 100 66 185 73 303 14 250 -71 471 -245 637
-157 149 -343 220 -579 217 -48 0 -119 -7 -158 -14z m313 -357 c77 -29 163
-113 207 -202 94 -189 59 -443 -79 -582 -28 -27 -78 -63 -111 -80 -54 -26 -70
-29 -160 -29 -90 0 -106 3 -160 29 -118 58 -200 168 -230 311 -19 88 -19 142
0 230 21 97 59 171 124 235 114 113 258 144 409 88z"/>
<path d="M9304 2566 c-100 -19 -136 -32 -237 -84 -159 -81 -293 -230 -358
-396 -87 -226 -74 -481 37 -699 61 -119 190 -252 304 -316 238 -131 563 -142
807 -25 116 55 229 155 293 259 36 58 24 70 -108 110 -64 20 -137 43 -161 51
-73 23 -88 19 -138 -36 -28 -31 -69 -61 -111 -82 -61 -30 -74 -33 -162 -33
-82 0 -103 4 -152 27 -110 51 -200 164 -234 292 -16 60 -18 212 -3 275 49 214
250 357 452 321 82 -15 143 -48 202 -109 28 -28 58 -51 70 -51 38 0 339 98
349 113 17 27 -16 80 -109 172 -103 104 -201 162 -332 196 -101 27 -308 34
-409 15z"/>
<path d="M11485 2569 c-146 -21 -409 -123 -459 -178 -19 -21 -18 -22 40 -145
l59 -125 30 20 c176 115 353 169 506 155 166 -15 263 -96 288 -240 14 -81 14
-108 -2 -129 -11 -16 -17 -16 -92 4 -104 27 -336 37 -439 19 -220 -39 -384
-149 -459 -307 -27 -59 -32 -81 -35 -168 -3 -83 0 -111 18 -164 80 -239 313
-373 594 -341 148 17 289 79 390 171 59 54 82 60 95 27 45 -116 67 -144 136
-174 44 -19 204 -23 260 -6 l30 8 3 167 2 166 -33 16 c-19 9 -39 27 -46 41 -7
17 -11 123 -11 327 -1 355 -9 422 -69 542 -84 170 -234 271 -457 310 -93 16
-252 18 -349 4z m315 -851 c79 -13 141 -34 152 -51 15 -23 9 -177 -8 -213 -35
-74 -151 -152 -266 -179 -124 -29 -223 -12 -297 52 -119 101 -105 262 29 348
93 59 216 72 390 43z"/>
<path d="M16071 2565 c-90 -16 -140 -35 -246 -88 -117 -60 -244 -189 -308
-314 -210 -408 -61 -915 325 -1105 102 -50 191 -76 305 -87 285 -29 546 61
715 249 71 78 97 124 82 148 -12 18 -245 90 -296 91 -20 1 -34 -9 -57 -41 -89
-121 -276 -183 -431 -144 -150 39 -260 146 -300 294 -20 77 -58 72 584 72 447
0 576 3 590 13 24 18 31 102 17 217 -53 430 -375 711 -811 709 -52 -1 -128 -7
-169 -14z m239 -285 c123 -23 223 -95 278 -198 38 -71 55 -141 40 -159 -8 -11
-90 -13 -392 -11 l-381 3 1 46 c1 98 96 229 204 282 88 43 161 54 250 37z"/>
<path d="M17818 2564 c-250 -45 -452 -194 -564 -416 -55 -110 -75 -196 -81
-348 -6 -167 14 -268 84 -410 40 -81 61 -109 142 -191 82 -81 110 -102 191
-142 133 -65 243 -90 400 -89 194 0 332 38 475 130 125 80 249 227 226 269 -7
13 -49 30 -144 56 -135 37 -187 45 -187 28 0 -24 -94 -110 -152 -139 -133 -64
-266 -67 -387 -6 -116 58 -214 188 -215 289 l-1 40 585 5 c322 3 591 9 598 13
17 12 16 208 -3 296 -52 247 -194 435 -410 542 -167 83 -362 109 -557 73z
m314 -304 c69 -26 140 -82 181 -142 40 -59 70 -143 65 -180 l-3 -23 -381 -3
c-325 -2 -383 0 -394 12 -16 20 11 114 52 178 100 158 303 225 480 158z"/>
<path d="M10340 2531 c-7 -13 -10 -270 -10 -765 l0 -745 22 -15 c18 -13 54
-16 189 -16 148 0 168 2 182 18 16 17 17 85 17 768 0 570 -3 753 -12 762 -8 8
-66 12 -195 12 -170 0 -183 -1 -193 -19z"/>
</g>
</svg>
